<svg width="320" height="321" viewBox="0 0 320 321" fill="none" xmlns="http://www.w3.org/2000/svg">
<path d="M172.048 194.543C171.63 189.552 171.475 184.542 171.584 179.535C171.584 179.119 170.976 179.007 170.928 179.535C170.405 184.554 170.459 189.616 171.088 194.623C171.099 194.75 171.16 194.868 171.257 194.951C171.355 195.033 171.481 195.074 171.608 195.063C171.736 195.053 171.853 194.992 171.936 194.894C172.019 194.797 172.059 194.67 172.048 194.543ZM164.8 192.671C164.829 192.736 164.876 192.791 164.936 192.83C164.996 192.868 165.065 192.889 165.136 192.889C165.207 192.889 165.277 192.868 165.337 192.83C165.396 192.791 165.443 192.736 165.472 192.671C165.248 187.631 165.04 182.575 164.816 177.519C164.816 177.434 164.783 177.353 164.723 177.293C164.663 177.233 164.581 177.199 164.496 177.199C164.411 177.199 164.33 177.233 164.27 177.293C164.21 177.353 164.176 177.434 164.176 177.519C163.963 181.336 164.006 185.164 164.304 188.975C164.315 190.223 164.481 191.465 164.8 192.671ZM206.736 193.311C206.893 195.783 206.617 198.263 205.92 200.639C205.92 201.007 206.992 203.039 207.664 197.199C208.086 193.255 207.263 189.277 205.312 185.823C205.104 185.439 204.56 185.823 204.736 186.159C205.844 188.397 206.522 190.823 206.736 193.311ZM187.344 77.6471C187.333 78.8512 187.74 80.0218 188.496 80.9591C189.456 81.8231 190.944 78.4631 195.408 77.9351V73.6151C192.294 73.8431 189.395 75.2923 187.344 77.6471ZM229.408 193.215C229.408 189.919 229.12 186.639 229.056 183.343C229.056 182.895 228.368 182.991 228.368 183.439C228.368 186.847 228.368 190.287 228.512 193.711C228.576 195.967 229.456 195.135 229.408 193.215ZM198.4 73.5351L198.496 77.8551C204.016 78.0471 205.616 82.2071 206.208 80.9111C206.464 80.3191 207.504 77.3591 206.944 76.8471C204.595 74.7382 201.557 73.5604 198.4 73.5351ZM83.5683 47.5671C82.7363 48.0151 83.5683 49.9831 84.2243 49.5511C84.8803 49.1191 84.4803 47.0391 83.5683 47.5671ZM82.5123 42.7511C81.3923 42.8631 81.3603 44.0151 82.5123 44.1591C83.3468 44.2239 84.1561 44.4754 84.8803 44.8951C85.3123 45.1831 85.7763 44.6071 85.5203 44.2071C85.1907 43.7219 84.7392 43.332 84.2112 43.0764C83.6833 42.8209 83.0973 42.7087 82.5123 42.7511ZM79.6483 48.3831C80.0765 49.5062 80.4136 50.662 80.6563 51.8391C80.9283 53.2151 80.9123 53.5831 80.8483 53.6631C80.5899 53.6715 80.3328 53.7036 80.0803 53.7591C79.6163 53.9191 79.6163 54.5111 80.3363 54.8471C80.5316 54.9458 80.7521 54.9834 80.969 54.9548C81.1859 54.9263 81.3892 54.833 81.5523 54.6871C82.3843 53.8871 82.0323 51.6311 80.5283 47.9831C80.4753 47.8664 80.378 47.7756 80.258 47.7306C80.138 47.6856 80.005 47.6901 79.8883 47.7431C79.7716 47.7962 79.6808 47.8934 79.6358 48.0134C79.5907 48.1335 79.5953 48.2664 79.6483 48.3831Z" fill="#27272A"/>
<path d="M311.552 241.119H288.848C290.944 229.919 278.496 222.031 270.752 226.159C269.957 222.278 267.772 218.821 264.608 216.438C261.444 214.054 257.518 212.908 253.568 213.215C253.147 210.466 252.107 207.848 250.527 205.559C248.948 203.27 246.869 201.369 244.448 199.999C243.696 191.039 244.032 181.919 244.048 173.071C245.408 173.167 248.672 173.471 248.144 172.175C246.544 168.207 243.808 161.583 241.744 157.775C242.576 157.775 243.52 157.775 243.52 156.927C243.776 141.567 244.272 109.343 244.272 109.343C244.528 90.2712 245.168 68.3512 231.776 52.6552C231.36 52.1592 230.784 51.9832 230.416 52.4952C224.968 60.2083 221.386 69.0815 219.952 78.4152C219.408 69.2952 218.688 58.9912 217.28 48.7992C214.88 31.5032 209.088 19.8872 199.68 12.9912C198.784 12.3352 197.472 11.2792 196.88 11.6952C182.192 22.0952 177.872 40.2392 176.848 53.6312C176.48 59.3272 176.368 65.1032 176.512 70.8312C174.544 63.4872 167.792 49.1512 165.312 52.6072C153.76 69.1512 154.736 90.5272 155.712 109.391C157.312 145.327 157.792 154.591 158 157.007C158 157.791 158 158.319 160.208 158.079C155.552 170.415 154.592 172.479 155.008 172.831C155.424 173.183 157.072 173.071 157.872 173.023C157.76 178.415 159.04 204.623 158.864 206.015C157.703 207.43 156.769 209.017 156.096 210.719C153.369 211.461 150.838 212.793 148.681 214.62C146.525 216.448 144.796 218.726 143.616 221.295C141.488 221.087 139.342 221.44 137.392 222.319C135.472 201.023 131.536 168.831 126.72 147.391C134.96 148.463 138.896 144.767 140.8 141.567C145.6 133.199 142.4 119.295 136.448 111.599C131.41 100.881 124.022 91.4369 114.832 83.9672C115.808 82.1112 113.232 73.6792 106.688 70.2072C103.888 68.7192 100.16 68.6072 98.4482 67.0072C94.7842 63.4232 97.2482 53.8872 89.6162 51.3912C89.1226 47.4477 88.3038 43.5517 87.1682 39.7432C96.7682 35.6152 96.2722 24.4472 90.6082 21.2792C85.3282 18.3352 82.4162 22.5112 78.9442 23.6792C74.1442 25.2792 70.0642 21.8232 63.7602 21.8232C51.8722 21.8232 49.0562 33.7912 48.4322 34.3832C47.8082 34.9752 47.5682 38.3512 42.2722 40.4312C36.6402 42.6232 29.4722 42.7512 26.4162 49.3752C23.8242 55.1672 28.8002 62.2392 25.3762 67.5992C23.3762 70.7992 16.1922 70.9912 10.9762 79.3592C5.39224 88.2712 7.26424 100.367 14.9602 105.391C8.33624 120.271 8.64024 136.095 15.7442 146.751C22.2402 156.463 32.8322 160.111 44.3362 159.807C43.7602 186.911 44.0002 213.935 42.5602 241.215C37.3602 241.215 32.1442 241.327 27.0402 241.423C26.896 241.423 26.7576 241.48 26.6556 241.583C26.5535 241.685 26.4962 241.823 26.4962 241.967C26.4962 242.111 26.5535 242.25 26.6556 242.352C26.7576 242.454 26.896 242.511 27.0402 242.511C31.6002 242.607 36.9922 242.703 42.4642 242.703C41.5842 258.591 40.4002 274.703 38.9442 290.495C38.8002 292.095 42.5442 291.999 44.1282 292.095C43.6907 294.318 43.5242 296.585 43.6322 298.847C42.4162 299.919 40.6402 307.247 40.7362 308.607C40.7362 308.895 40.8642 309.071 41.0562 309.103C42.8162 309.391 69.4082 310.703 70.6402 309.247C70.671 309.191 70.6872 309.127 70.6872 309.063C70.6872 308.999 70.671 308.936 70.6402 308.879C68.8642 304.079 62.6402 300.031 57.5522 298.719L58.9282 292.591C59.9842 292.591 62.1282 292.751 62.4322 292.191C69.5842 276.063 76.0962 259.407 81.7762 242.719H105.04C109.472 256.945 113.384 271.328 116.768 285.839C118.128 291.695 117.184 291.375 120.96 291.551C120.942 293.833 121.217 296.107 121.776 298.319C120.549 301.207 119.808 304.278 119.584 307.407C119.553 307.461 119.537 307.521 119.537 307.583C119.537 307.645 119.553 307.706 119.584 307.759C120.592 309.039 149.312 310.111 151.28 308.943C152.88 307.919 144.112 299.423 136.336 297.855C136.448 295.812 136.4 293.763 136.192 291.727C137.552 291.727 140.688 292.095 140.688 290.751C140.688 275.647 140.176 259.471 139.088 242.751H311.6C311.817 242.745 312.022 242.653 312.17 242.495C312.319 242.338 312.399 242.128 312.392 241.911C312.386 241.695 312.294 241.49 312.136 241.341C311.979 241.193 311.769 241.113 311.552 241.119ZM94.8322 212.575C98.8162 223.535 100.944 230.351 104.544 241.263H82.2562C86.1442 229.759 91.5202 212.463 95.0562 197.919C96.2562 193.119 98.6722 195.151 97.7922 199.055C96.7682 203.871 94.7842 212.463 94.8322 212.575ZM135.2 298.015C132.464 299.263 125.6 299.183 122.928 298.415C122.752 296.127 122.288 293.839 122.256 291.551L134.832 291.695C134.944 293.807 135.072 295.903 135.2 298.015ZM45.6002 159.791C59.0402 159.119 75.0242 152.975 88.4002 143.327C88.6882 143.119 88.9442 143.071 89.0242 142.799C89.1042 142.527 89.0242 142.303 88.5442 141.615C92.3016 139.856 96.247 138.53 100.304 137.663C101.904 137.375 106.592 136.479 107.44 133.935L110.928 133.839C114.288 140.799 119.632 145.631 125.616 147.135L128.816 166.159C102.384 175.263 78.2562 177.199 45.6962 172.767C45.8082 168.463 45.8242 164.095 45.6482 159.791H45.6002ZM87.5362 62.2712C85.2962 68.0792 80.6242 68.3192 81.3762 69.6952V70.1912C81.6802 72.7352 82.2722 77.9672 78.1762 81.6632C71.2642 78.9112 66.9762 75.7432 63.7762 71.1352C64.4482 69.9672 63.7762 64.8632 63.7762 64.8152C62.7842 59.5992 58.2402 58.5432 59.2642 53.8232C59.4082 53.1352 59.6162 52.7352 59.8882 52.6072C60.7842 52.2072 63.0882 55.2952 63.5682 51.7112C64.3202 46.5912 65.7602 42.6392 70.8322 41.1992C75.5362 39.8712 80.0802 42.1432 86.1602 40.0472C87.5362 45.7432 89.9042 56.0472 87.5362 62.2712ZM78.4162 83.0712C81.1842 82.3832 83.5522 75.5832 82.9762 71.7752C87.2944 72.3852 91.547 73.3921 95.6802 74.7832C110.72 80.1432 123.776 91.5992 132.592 107.151C126.576 101.391 118.704 98.1432 111.584 98.5912C109.314 94.871 106.706 91.3681 103.792 88.1272C103.749 88.0791 103.696 88.0407 103.636 88.0144C103.577 87.9881 103.513 87.9746 103.448 87.9746C103.383 87.9746 103.319 87.9881 103.26 88.0144C103.201 88.0407 103.148 88.0791 103.104 88.1272C103.058 88.1719 103.022 88.2254 102.997 88.2845C102.972 88.3436 102.959 88.407 102.959 88.4712C102.959 88.5353 102.972 88.5988 102.997 88.6579C103.022 88.717 103.058 88.7704 103.104 88.8152C105.661 91.994 108.017 95.3284 110.16 98.7992C108.04 99.1192 105.995 99.8241 104.128 100.879C103.826 100.909 103.526 100.962 103.232 101.039C102.354 101.238 101.46 101.361 100.56 101.407C96.8162 101.407 96.6722 99.8072 95.3282 99.9832C92.6562 100.255 93.4402 105.535 99.5842 106.655C98.4802 109.743 97.9842 116.543 100.048 119.455C97.5842 119.455 96.0002 118.943 95.9042 121.455C95.8721 121.908 95.8721 122.362 95.9042 122.815C95.1109 122.305 94.213 121.979 93.2768 121.863C92.3407 121.747 91.3903 121.842 90.4962 122.143C88.8162 122.783 85.6162 126.127 84.0002 127.519C84.0002 126.847 84.0002 125.823 83.4082 125.759C73.2482 124.911 57.8082 124.671 48.5602 124.927C48.0532 118.4 48.1389 111.839 48.8162 105.327C48.8438 105.194 48.8172 105.054 48.7422 104.94C48.6671 104.826 48.5499 104.747 48.4162 104.719C48.2826 104.692 48.1434 104.718 48.0294 104.793C47.9154 104.868 47.8358 104.986 47.8082 105.119C47.2962 107.999 46.3042 119.743 47.3442 124.975L34.2402 125.839C34.1435 125.848 34.0518 125.887 33.9772 125.949C33.9027 126.011 33.8489 126.095 33.8229 126.189C33.7969 126.282 33.7999 126.382 33.8316 126.473C33.8632 126.565 33.9221 126.645 34.0002 126.703C34.0453 126.744 34.099 126.773 34.1572 126.79C34.2154 126.806 34.2766 126.81 34.3362 126.799C50.4902 125.81 66.6927 125.917 82.8322 127.119C82.9066 132.525 84.5339 137.796 87.5202 142.303C66.1762 157.679 31.0562 167.727 16.7202 145.935C6.40024 130.367 11.5202 103.167 30.6562 86.5592C39.7965 78.7224 50.9172 73.5523 62.8002 71.6152C65.6962 77.1352 76.3202 83.5512 78.4002 83.0392L78.4162 83.0712ZM102.128 102.463C101.313 103.324 100.628 104.3 100.096 105.359C97.1042 104.911 95.4082 103.343 95.1202 102.047C94.8962 101.151 95.4242 100.783 96.5282 101.535C98.2649 102.382 100.211 102.705 102.128 102.463ZM109.904 111.279C109.823 111.372 109.775 111.49 109.768 111.613C109.76 111.737 109.794 111.859 109.863 111.961C109.933 112.064 110.034 112.14 110.151 112.179C110.269 112.217 110.396 112.216 110.512 112.175C111.808 111.663 112.416 111.775 112.512 112.015C112.608 112.255 112.096 113.439 111.056 113.951C110.384 114.287 109.088 114.591 108.096 112.783C107.28 111.311 108.672 109.695 108.096 109.359C107.52 109.023 105.888 111.503 107.28 113.679C106.993 113.89 106.649 114.01 106.292 114.024C105.936 114.039 105.584 113.946 105.28 113.759C104.576 113.215 104.096 111.695 104.912 108.959C105.216 107.903 103.424 107.631 103.2 112.159C103.104 112.783 102.416 116.623 102.208 117.919C102 119.215 101.712 119.311 101.68 119.327C101.648 119.343 101.504 119.327 101.376 119.151C100.24 117.871 98.8802 111.359 101.056 106.351C101.733 104.662 102.888 103.208 104.381 102.168C105.873 101.127 107.638 100.546 109.456 100.495C110.526 100.475 111.585 100.713 112.542 101.19C113.5 101.666 114.328 102.367 114.957 103.233C115.585 104.099 115.995 105.104 116.152 106.162C116.308 107.22 116.207 108.301 115.856 109.311C115.684 109.849 115.391 110.34 115 110.748C114.609 111.156 114.13 111.469 113.6 111.663C113.418 111.351 113.164 111.086 112.86 110.89C112.556 110.694 112.209 110.572 111.85 110.535C111.49 110.497 111.126 110.545 110.788 110.675C110.45 110.804 110.147 111.011 109.904 111.279ZM98.1282 124.831C97.9322 124.28 97.5541 123.811 97.0562 123.503L97.2482 120.911H104.832C104.832 121.775 105.072 124.319 105.072 124.319C102.749 124.329 100.428 124.5 98.1282 124.831ZM103.088 119.471C103.511 117.723 103.815 115.948 104 114.159C104.52 114.726 105.227 115.086 105.991 115.174C106.755 115.262 107.525 115.072 108.16 114.639L108.416 114.815C107.732 117.939 107.645 121.163 108.16 124.319H106.56C106.604 122.805 106.437 121.292 106.064 119.823C105.6 119.407 103.792 119.471 103.088 119.471ZM90.7682 123.343C91.8406 123.075 92.9648 123.095 94.0268 123.402C95.0889 123.708 96.0512 124.289 96.8162 125.087C97.1042 125.567 97.0562 125.727 97.0402 125.775C97.0242 125.823 96.0802 125.951 95.4402 125.919C94.4947 125.767 93.5251 125.9 92.6562 126.303C91.3371 127.361 90.4728 128.884 90.2402 130.559C90.0002 134.639 101.792 134.127 105.824 133.999C102.848 137.039 93.9842 136.351 87.9842 140.543C85.8875 136.927 84.5534 132.919 84.0642 128.767C85.1202 128.287 89.0722 124.079 90.7682 123.343ZM140.8 138.559C137.344 148.655 126.512 146.063 126.064 145.951C118.512 144.047 114.144 137.007 112.496 133.743C114.288 133.327 113.776 131.567 113.6 129.871L127.552 129.551C128.672 131.679 131.328 130.975 131.2 128.847C131.217 128.384 131.07 127.93 130.787 127.563C130.504 127.197 130.101 126.941 129.649 126.84C129.196 126.74 128.723 126.8 128.311 127.012C127.899 127.224 127.574 127.573 127.392 127.999C125.392 127.823 115.552 128.095 113.488 128.319C113.248 124.031 113.488 124.335 109.536 124.351C109.168 121.344 109.168 118.303 109.536 115.295C110.374 115.452 111.241 115.308 111.984 114.89C112.727 114.471 113.299 113.805 113.6 113.007C116.256 112.671 118.928 108.063 116.576 103.135C116.136 102.308 115.529 101.581 114.794 101C114.059 100.419 113.211 99.9963 112.304 99.7592C124.512 99.4392 135.568 109.279 139.984 120.991C140.208 120.991 140.352 120.831 139.984 120.991C142.257 126.582 142.545 132.782 140.8 138.559ZM57.6002 292.559C57.0914 294.575 56.7173 296.622 56.4802 298.687C52.5885 299.09 48.6679 299.133 44.7682 298.815C45.0242 296.591 45.2642 294.383 45.5042 292.159L57.6002 292.559ZM270.88 227.103C274.368 224.239 289.792 227.887 287.488 241.167H138.992L137.6 223.439C145.712 220.623 151.664 224.911 153.76 230.127C154.128 231.103 156.192 230.271 152.976 226.255C150.933 223.73 148.047 222.025 144.848 221.455C152.592 206.543 174.512 208.927 178.768 224.959C178.992 225.807 180.256 225.391 180.032 224.543C178.748 219.815 175.73 215.745 171.578 213.144C167.426 210.544 162.446 209.603 157.632 210.511C158.989 207.784 160.996 205.433 163.477 203.666C165.958 201.898 168.837 200.77 171.857 200.379C174.878 199.988 177.949 200.348 180.798 201.426C183.647 202.504 186.187 204.267 188.192 206.559C189.664 208.159 194.592 217.535 196.192 218.639C194.877 220.895 194.053 223.403 193.776 225.999C191.798 226.724 190 227.867 188.503 229.349C187.007 230.832 185.847 232.62 185.104 234.591C185.051 234.712 185.048 234.849 185.096 234.972C185.144 235.095 185.239 235.194 185.36 235.247C185.481 235.3 185.618 235.303 185.741 235.255C185.864 235.207 185.963 235.112 186.016 234.991C186.984 232.749 188.52 230.797 190.472 229.33C192.424 227.862 194.726 226.929 197.149 226.622C199.572 226.315 202.033 226.645 204.289 227.58C206.546 228.514 208.52 230.021 210.016 231.951C210.122 232.1 210.283 232.2 210.463 232.23C210.643 232.26 210.828 232.217 210.976 232.111C211.125 232.005 211.225 231.844 211.255 231.664C211.285 231.484 211.242 231.3 211.136 231.151C209.293 228.711 206.76 226.879 203.865 225.892C200.971 224.905 197.846 224.809 194.896 225.615C195.366 223.068 196.347 220.641 197.78 218.483C199.213 216.324 201.067 214.478 203.232 213.055C205.85 211.377 208.851 210.391 211.954 210.191C215.057 209.991 218.16 210.582 220.972 211.909C223.784 213.237 226.212 215.257 228.029 217.781C229.846 220.304 230.993 223.248 231.36 226.335C231.395 226.495 231.486 226.636 231.618 226.733C231.749 226.83 231.911 226.876 232.073 226.862C232.236 226.848 232.388 226.776 232.501 226.659C232.614 226.541 232.681 226.386 232.688 226.223C232.264 222.701 230.902 219.358 228.743 216.543C226.584 213.728 223.708 211.546 220.416 210.223C221.484 207.406 223.257 204.91 225.565 202.974C227.873 201.038 230.64 199.728 233.6 199.167C242.944 197.727 250.96 204.911 252.144 213.375C249.696 213.78 247.372 214.735 245.346 216.168C243.32 217.601 241.646 219.474 240.448 221.647C240.16 222.191 241.04 222.671 241.344 222.143C243.091 219.19 245.76 216.893 248.939 215.604C252.119 214.314 255.634 214.105 258.944 215.007C262.129 216.022 264.9 218.039 266.844 220.759C268.788 223.478 269.8 226.753 269.728 230.095C269.728 230.527 270.304 231.071 270.736 230.767C270.912 230.655 271.424 230.287 270.896 227.103H270.88ZM178.32 54.4952C189.296 52.5752 200.72 52.2392 216.48 53.4072C219.008 75.1512 219.376 95.6312 219.776 117.503C216.704 110.719 213.584 100.815 213.632 93.9832C213.617 86.0356 211.685 78.2088 208 71.1672C203.616 62.7992 197.68 56.8792 191.216 63.8232C182.256 73.4232 182.896 85.0072 183.072 97.8552C182.479 103.569 181.25 109.198 179.408 114.639C178.848 87.9672 177.296 68.3192 178.32 54.4952ZM242.448 156.479C241.271 156.295 240.073 156.295 238.896 156.479L239.056 143.871C239.103 143.586 239.084 143.293 239.001 143.016C238.918 142.738 238.773 142.484 238.576 142.271C234.912 139.199 224.656 129.311 221.264 120.495C221.264 111.215 221.12 101.807 220.752 92.5272C228.864 92.2872 236.448 92.3832 242.832 92.5272C243.472 108.127 242.272 135.391 242.448 156.479ZM178.544 199.279C175.305 198.559 171.936 198.668 168.751 199.597C165.565 200.526 162.665 202.243 160.32 204.591C160.208 201.151 159.504 179.775 159.264 173.055L177.44 172.703C177.392 175.951 178.24 196.143 178.544 199.279ZM213.968 105.023C216.896 117.135 222.144 130.079 237.664 143.247C237.664 147.567 237.168 158.495 237.456 162.655C237.136 162.655 213.584 162.815 211.856 162.959C213.646 143.702 214.351 124.36 213.968 105.023ZM183.424 105.263C184.496 124.863 186.464 144.367 189.296 163.311C185.376 163.215 166.992 162.655 164.32 162.783C164.32 160.159 163.664 145.055 163.6 143.583C173.791 133.007 180.68 119.691 183.424 105.263ZM178.624 172.671C179.776 172.671 182.32 172.943 182.176 171.807C181.457 169.305 180.476 166.887 179.248 164.591L189.456 164.735C189.696 166.207 189.92 167.679 190.144 169.151C188.64 170.751 185.6 180.031 185.184 181.711C185.152 181.823 185.147 181.941 185.169 182.055C185.192 182.169 185.241 182.276 185.312 182.367C185.696 182.847 186.704 182.911 187.776 182.911C183.12 190.287 185.648 199.407 187.424 203.903C185.21 201.962 182.616 200.502 179.808 199.615C180.176 196.687 178.832 175.359 178.64 172.671H178.624ZM186.816 190.015C187.155 187.545 187.959 185.162 189.184 182.991C196.565 183.287 203.956 183.207 211.328 182.751C212.208 186.223 220.224 195.327 210.272 209.007C207.571 209.373 204.978 210.303 202.66 211.736C200.341 213.17 198.351 215.075 196.816 217.327C191.152 208.767 185.376 200.319 186.832 190.015H186.816ZM212.56 122.463C212.32 138.591 211.328 152.719 210.144 168.175L191.312 168.671C187.76 144.079 186.24 126.479 184.912 106.271C184.544 100.543 184.176 94.6072 184.304 88.7992C184.512 78.8312 186.544 71.7272 190.704 66.3992C196.592 58.8952 201.36 62.2392 206.032 70.5432C208.715 75.3366 210.56 80.5528 211.488 85.9672C212.928 94.1272 212.64 117.807 212.576 122.463H212.56ZM219.28 209.807C216.978 209.062 214.561 208.736 212.144 208.847C214.836 205.044 216.336 200.525 216.453 195.867C216.57 191.209 215.298 186.621 212.8 182.687C213.84 182.687 216.608 182.687 216.288 181.711C215.744 179.887 214.208 176.095 212.976 173.039C212.176 171.023 211.376 169.279 211.376 168.815C211.472 167.967 211.856 164.191 211.856 164.191C213.344 164.431 220.464 164.191 222.88 164.191C220.848 170.591 221.12 169.791 220.688 170.895C220.368 171.743 220.208 172.159 220.416 172.495C220.624 172.831 221.472 172.815 223.616 172.863C223.616 182.095 224.4 192.767 224.8 201.967C222.208 203.957 220.287 206.693 219.296 209.807H219.28ZM224.64 172.847L242.864 173.023C242.284 181.735 242.316 190.476 242.96 199.183C240.214 197.979 237.202 197.506 234.218 197.812C231.235 198.117 228.382 199.191 225.936 200.927C225.6 191.567 225.344 181.951 224.656 172.847H224.64ZM178.4 53.2952C179.504 40.3512 183.76 23.0232 197.6 13.0712C210.912 22.2072 214.544 37.8072 216.304 51.9352C204.96 51.1032 188.992 51.2152 178.416 53.2952H178.4ZM156.8 94.6232C160.528 94.6232 174.4 94.4312 177.6 94.4152C177.888 102.095 178.182 109.786 178.48 117.487C175.52 125.167 168.88 136.975 162.656 142.767C162.336 144.367 162.752 154.671 162.832 156.527C161.664 156.639 160.496 156.751 159.408 156.911C158.768 135.375 156.8 107.551 156.8 94.6232Z" fill="#27272A"/>
<path d="M79.3444 58.4471C75.0084 58.1111 73.9044 54.9591 72.9444 55.2471C72.6884 55.2471 72.5764 55.5831 72.5124 55.7591C71.1524 58.7191 72.8804 62.3991 75.9044 62.3991C76.8346 62.2995 77.7203 61.9491 78.467 61.3856C79.2137 60.822 79.7934 60.0663 80.1444 59.1991C80.1972 59.0888 80.2136 58.9646 80.1912 58.8444C80.1687 58.7242 80.1086 58.6142 80.0195 58.5305C79.9304 58.4467 79.8169 58.3935 79.6955 58.3785C79.5742 58.3635 79.4512 58.3876 79.3444 58.4471ZM78.5764 59.5511C76.4164 62.4311 72.9924 61.1511 73.3284 57.1991C73.9921 57.9338 74.8014 58.5223 75.7049 58.9272C76.6084 59.3321 77.5863 59.5446 78.5764 59.5511ZM200 128.399C199.975 128.229 199.889 128.073 199.758 127.961C199.627 127.848 199.461 127.786 199.288 127.786C199.116 127.786 198.949 127.848 198.819 127.961C198.688 128.073 198.602 128.229 198.576 128.399C198.576 130.815 199.376 160.623 199.824 163.855C199.824 164.008 199.885 164.154 199.993 164.262C200.101 164.37 200.248 164.431 200.4 164.431C200.553 164.431 200.7 164.37 200.808 164.262C200.916 164.154 200.976 164.008 200.976 163.855C201.696 153.679 200.336 138.943 200 128.399ZM73.6004 50.9111C74.1124 50.9111 74.2724 50.3671 74.1604 49.8071C73.9364 48.6871 73.0404 48.6231 72.8164 49.2631C72.5924 49.9031 72.9124 50.9111 73.6004 50.9111ZM71.9044 44.1431C71.184 44.2863 70.5348 44.6729 70.0657 45.2381C69.5967 45.8033 69.3363 46.5127 69.3284 47.2471C69.4564 48.0791 70.1444 48.0791 70.2564 47.4711C70.5924 45.7591 71.3124 45.8711 72.2084 45.3271C72.3375 45.2641 72.4409 45.1584 72.5011 45.028C72.5613 44.8976 72.5747 44.7504 72.539 44.6112C72.5033 44.4721 72.4206 44.3495 72.305 44.2642C72.1894 44.1789 72.0479 44.1362 71.9044 44.1431ZM235.328 194.543C235.328 194.847 235.92 194.751 235.984 194.447C236.24 193.359 235.056 180.959 235.248 177.599C235.248 177.167 234.608 177.183 234.576 177.599C234.281 183.258 234.533 188.933 235.328 194.543ZM198.528 207.551C198.848 207.791 199.344 207.407 199.136 207.055C198.528 205.983 197.664 205.151 196.752 203.503C195.353 200.892 194.545 198.004 194.387 195.045C194.23 192.086 194.726 189.129 195.84 186.383C196.016 185.983 195.376 185.743 195.184 186.159C193.824 189.281 193.271 192.695 193.576 196.086C193.881 199.478 195.034 202.738 196.928 205.567C197.356 206.307 197.896 206.976 198.528 207.551Z" fill="#27272A"/>
</svg>
